<svg width="85" height="80" fill="none" xmlns="http://www.w3.org/2000/svg"><g filter="url(#filter0_dd)"><path d="M79.474 24.928l-3.219 2.976H8.824l-3.298-2.976v-7.126a2.943 2.943 0 012.943-2.943h68.063a2.943 2.943 0 012.942 2.943v7.126z" fill="#FFBD54"/><path d="M76.531 14.859h-3.495a2.943 2.943 0 012.942 2.943v10.102l3.496-2.976v-7.126a2.943 2.943 0 00-2.943-2.943z" fill="#D99830"/><path d="M79.474 24.928H5.526v42.877a2.943 2.943 0 002.943 2.943h68.063a2.943 2.943 0 002.942-2.943V24.928z" fill="#F4FBFF"/><path d="M75.979 24.928H5.526v3.233h66.7a3.752 3.752 0 013.753 3.752v35.892a2.943 2.943 0 01-2.943 2.943h3.495a2.943 2.943 0 002.943-2.943V24.928H75.98z" fill="#DAF1F4"/><path d="M42.5 6.546a2.719 2.719 0 100-5.437 2.719 2.719 0 000 5.437z" fill="#365E7D"/><path d="M55.532 18.777H29.468a1.116 1.116 0 100 2.232h26.064a1.116 1.116 0 100-2.232zM15.979 31.382h-4.521a1.116 1.116 0 100 2.232h4.52a1.116 1.116 0 100-2.232zM25.573 31.382h-4.521a1.116 1.116 0 100 2.232h4.521a1.116 1.116 0 100-2.232zM35.167 31.382h-4.522a1.116 1.116 0 100 2.232h4.522a1.116 1.116 0 100-2.232zM44.76 31.382h-4.52a1.116 1.116 0 100 2.232h4.52a1.116 1.116 0 100-2.232zM54.355 31.382h-4.521a1.116 1.116 0 100 2.232h4.52a1.116 1.116 0 100-2.232zM63.949 31.382h-4.522a1.116 1.116 0 100 2.232h4.522a1.116 1.116 0 100-2.232zM73.543 31.382H69.02a1.116 1.116 0 100 2.232h4.522a1.116 1.116 0 100-2.232zM15.979 38.952h-4.521a1.116 1.116 0 100 2.232h4.52a1.116 1.116 0 100-2.232zM25.573 38.952h-4.521a1.116 1.116 0 100 2.232h4.521a1.116 1.116 0 100-2.232zM35.167 38.952h-4.522a1.116 1.116 0 100 2.232h4.522a1.116 1.116 0 100-2.232zM44.76 38.952h-4.52a1.116 1.116 0 100 2.232h4.52a1.116 1.116 0 100-2.232zM54.355 38.952h-4.521a1.116 1.116 0 100 2.232h4.52a1.116 1.116 0 100-2.232zM63.949 38.952h-4.522a1.116 1.116 0 100 2.232h4.522a1.116 1.116 0 100-2.232zM73.543 38.952H69.02a1.116 1.116 0 100 2.232h4.522a1.116 1.116 0 100-2.232zM15.979 46.522h-4.521a1.116 1.116 0 100 2.232h4.52a1.116 1.116 0 100-2.232zM25.573 46.522h-4.521a1.116 1.116 0 100 2.232h4.521a1.116 1.116 0 100-2.232zM35.167 46.522h-4.522a1.116 1.116 0 100 2.232h4.522a1.116 1.116 0 100-2.232zM44.76 46.522h-4.52a1.116 1.116 0 100 2.232h4.52a1.116 1.116 0 100-2.232zM54.355 46.522h-4.521a1.116 1.116 0 100 2.232h4.52a1.116 1.116 0 100-2.232zM63.949 46.522h-4.522a1.116 1.116 0 100 2.232h4.522a1.116 1.116 0 100-2.232zM73.543 46.522H69.02a1.116 1.116 0 100 2.232h4.522a1.116 1.116 0 100-2.232zM15.979 54.092h-4.521a1.116 1.116 0 100 2.232h4.52a1.116 1.116 0 100-2.232zM25.573 54.092h-4.521a1.116 1.116 0 100 2.232h4.521a1.116 1.116 0 100-2.232zM35.167 54.092h-4.522a1.116 1.116 0 100 2.232h4.522a1.116 1.116 0 100-2.232zM44.76 54.092h-4.52a1.116 1.116 0 100 2.232h4.52a1.116 1.116 0 100-2.232zM54.355 54.092h-4.521a1.116 1.116 0 100 2.232h4.52a1.116 1.116 0 100-2.232zM63.949 54.092h-4.522a1.116 1.116 0 100 2.232h4.522a1.116 1.116 0 100-2.232zM73.543 54.092H69.02a1.116 1.116 0 100 2.232h4.522a1.116 1.116 0 100-2.232zM15.979 61.662h-4.521a1.116 1.116 0 100 2.232h4.52a1.116 1.116 0 100-2.232zM25.573 61.662h-4.521a1.116 1.116 0 100 2.232h4.521a1.116 1.116 0 100-2.232zM35.167 61.662h-4.522a1.116 1.116 0 100 2.232h4.522a1.116 1.116 0 100-2.232z" fill="#000"/><path d="M76.532 13.743h-4.545c-.189-.154 1.432.695-25.745-12.87a8.45 8.45 0 00-7.484 0C11.57 14.444 13.202 13.59 13.013 13.744H8.47a4.063 4.063 0 00-4.06 4.059v50.003a4.063 4.063 0 004.06 4.059H76.53a4.063 4.063 0 004.059-4.059v-5.136a1.116 1.116 0 10-2.232 0v5.136c0 1.007-.82 1.827-1.827 1.827H8.47a1.829 1.829 0 01-1.827-1.827V26.044h71.716v32.163a1.116 1.116 0 102.232 0V17.802a4.063 4.063 0 00-4.058-4.06zm-32.43-9.916c0 .884-.718 1.603-1.602 1.603a1.604 1.604 0 01-1.603-1.603c0-.828.632-1.512 1.439-1.594.11-.003.219-.003.328 0a1.605 1.605 0 011.439 1.594zM6.643 17.802c0-1.008.82-1.827 1.827-1.827H25.68a1.116 1.116 0 100-2.232h-7.73L38.69 3.402a3.837 3.837 0 003.81 4.26 3.838 3.838 0 003.81-4.26l20.738 10.34H30.143a1.116 1.116 0 100 2.233H76.53c1.008 0 1.827.82 1.827 1.827v6.01H6.642v-6.01z" fill="#000"/></g><defs><filter id="filter0_dd" x=".41" y="0" width="84.18" height="79.864" filterUnits="userSpaceOnUse" color-interpolation-filters="sRGB"><feFlood flood-opacity="0" result="BackgroundImageFix"/><feColorMatrix in="SourceAlpha" values="0 0 0 0 0 0 0 0 0 0 0 0 0 0 0 0 0 0 127 0"/><feOffset dy="4"/><feGaussianBlur stdDeviation="2"/><feColorMatrix values="0 0 0 0 0 0 0 0 0 0 0 0 0 0 0 0 0 0 0.25 0"/><feBlend in2="BackgroundImageFix" result="effect1_dropShadow"/><feColorMatrix in="SourceAlpha" values="0 0 0 0 0 0 0 0 0 0 0 0 0 0 0 0 0 0 127 0"/><feOffset dy="4"/><feGaussianBlur stdDeviation="2"/><feColorMatrix values="0 0 0 0 0 0 0 0 0 0 0 0 0 0 0 0 0 0 0.25 0"/><feBlend in2="effect1_dropShadow" result="effect2_dropShadow"/><feBlend in="SourceGraphic" in2="effect2_dropShadow" result="shape"/></filter></defs></svg>